<?xml version="1.0" standalone="no"?>
<!DOCTYPE svg PUBLIC "-//W3C//DTD SVG 20010904//EN"
 "http://www.w3.org/TR/2001/REC-SVG-20010904/DTD/svg10.dtd">
<svg version="1.0" xmlns="http://www.w3.org/2000/svg"
 width="287.000000pt" height="274.000000pt" viewBox="0 0 287.000000 274.000000"
 preserveAspectRatio="xMidYMid meet">

<g transform="translate(0.000000,274.000000) scale(0.100000,-0.100000)"
fill="#000000" stroke="none">
<path d="M1720 2400 c-14 -4 -54 -8 -90 -9 -57 -1 -71 -5 -117 -37 -52 -36
-53 -37 -53 -86 0 -28 8 -81 17 -119 10 -44 13 -73 7 -79 -12 -12 -157 -40
-208 -40 -29 0 -55 11 -105 44 -64 42 -82 49 -166 61 -66 9 -98 16 -106 21 -4
2 -74 5 -156 5 -143 1 -203 -8 -285 -40 -16 -6 -28 -9 -28 -6 0 13 -139 -61
-177 -95 -25 -22 -53 -40 -62 -40 -32 0 -112 -129 -126 -203 -8 -43 4 -63 114
-184 91 -100 207 -183 256 -183 l34 0 -53 -78 c-75 -110 -126 -197 -126 -215
0 -22 -69 -190 -80 -197 -6 -4 -13 -56 -17 -116 -5 -90 -3 -113 9 -124 12 -12
10 -17 -16 -41 -17 -14 -47 -34 -66 -44 -19 -10 -53 -32 -75 -49 -22 -17 -42
-32 -44 -33 -1 -1 -1 -7 1 -13 2 -8 22 2 50 23 26 20 65 45 87 56 22 12 51 31
64 44 13 13 30 26 38 29 11 4 9 11 -10 31 -23 25 -24 30 -17 124 4 53 11 100
16 103 10 6 73 158 84 204 9 37 120 216 169 272 21 24 35 44 30 45 -4 0 -29 0
-54 -1 -40 -1 -56 5 -120 49 -69 48 -186 165 -238 239 -20 29 -21 36 -10 70
30 95 71 153 127 179 18 9 45 29 60 44 29 31 104 65 222 101 64 20 97 23 230
22 218 0 346 -22 420 -72 30 -20 57 -40 58 -44 9 -19 152 -6 269 24 48 12 46
2 18 121 -25 103 -19 136 29 172 34 25 53 31 121 37 44 3 105 10 136 13 46 6
64 4 105 -15 27 -12 74 -28 104 -34 50 -11 56 -15 77 -56 21 -41 53 -184 53
-236 0 -19 -4 -21 -49 -16 -46 4 -55 1 -120 -43 -85 -57 -100 -72 -78 -81 10
-3 45 14 89 44 48 33 88 52 116 56 l42 6 0 -33 c0 -20 8 -39 20 -50 23 -20 27
-39 5 -31 -8 4 -15 10 -15 15 0 5 -10 9 -21 9 -12 0 -27 7 -34 17 -11 14 -17
12 -59 -27 -25 -23 -46 -39 -46 -35 0 5 -15 -12 -32 -36 -31 -41 -33 -50 -33
-120 1 -71 4 -81 35 -127 19 -28 37 -48 39 -46 2 2 9 0 15 -6 14 -10 173 -15
197 -5 10 3 31 -4 53 -18 67 -46 244 -91 336 -85 59 3 60 2 75 -29 17 -35 19
-53 6 -53 -5 0 -31 -19 -57 -43 -70 -63 -179 -115 -266 -128 -40 -6 -99 -17
-130 -26 -31 -8 -76 -13 -100 -11 -24 3 -106 -3 -183 -14 -164 -21 -406 -25
-387 -6 7 7 12 18 12 25 0 16 -42 17 -57 2 -6 -6 -17 -12 -24 -13 -8 -2 -22
-6 -31 -10 -22 -10 -272 -1 -396 13 -93 10 -141 26 -126 41 5 4 74 16 154 25
200 23 286 39 401 76 67 21 99 36 99 46 0 20 -34 14 -180 -30 -79 -24 -161
-40 -260 -51 -80 -9 -169 -21 -199 -26 -76 -14 -123 -12 -145 5 -29 22 -83 19
-98 -5 -12 -19 -24 -20 -165 -20 -129 0 -153 -2 -153 -15 0 -13 22 -15 139
-15 l139 0 -15 -31 c-17 -33 -22 -130 -9 -166 6 -18 4 -22 -10 -21 -30 1 -255
-12 -301 -18 -29 -3 -43 -10 -43 -20 0 -15 15 -15 305 5 82 6 117 5 141 -5 17
-7 78 -21 135 -30 115 -18 421 -16 574 5 44 6 118 15 165 21 109 13 113 14
128 23 6 5 12 4 12 -2 0 -14 -93 -87 -139 -110 -40 -20 -133 -53 -231 -82 -44
-14 -126 -23 -257 -31 -108 -7 -193 -16 -193 -22 0 -5 56 -7 148 -3 136 7 149
6 177 -13 17 -11 37 -20 46 -20 8 0 51 -20 95 -45 43 -25 81 -45 84 -45 10 0
110 -129 156 -201 45 -71 74 -164 74 -242 0 -59 11 -117 22 -117 11 0 0 147
-18 234 -8 38 -24 82 -34 97 -11 15 -20 30 -20 33 0 7 -35 55 -105 145 -30 38
-68 73 -95 87 -49 26 -82 46 -90 54 -3 3 -14 7 -25 9 -11 1 -33 9 -50 16 -33
14 -31 15 55 35 87 20 247 76 297 105 24 15 77 58 116 96 59 55 81 70 122 80
64 15 73 20 144 79 56 46 64 50 114 50 29 0 76 6 103 14 27 8 82 19 121 25 89
14 208 71 275 133 43 40 50 43 92 40 58 -5 76 9 76 58 0 56 -27 75 -103 72
-175 -8 -221 -5 -307 23 -47 15 -97 33 -112 41 l-27 14 24 42 c37 64 35 149
-4 210 -17 26 -41 54 -55 64 -16 10 -26 26 -26 40 0 13 -9 33 -20 44 -31 31
-26 60 9 60 22 0 37 -9 57 -35 26 -35 54 -46 54 -22 0 7 -17 30 -38 50 -27 26
-47 37 -68 37 l-30 0 -12 89 c-7 49 -19 108 -27 132 -20 54 -61 110 -79 103
-7 -3 -50 9 -96 26 -84 30 -156 37 -210 20z m445 -551 c59 -43 95 -102 95
-158 0 -47 -30 -115 -55 -125 -30 -11 -189 -6 -205 7 -36 29 -59 71 -65 120
-9 69 4 99 67 157 46 43 54 46 84 40 18 -4 53 -23 79 -41z m593 -421 c7 -6 12
-25 10 -42 -3 -28 -7 -31 -40 -34 -31 -3 -38 0 -38 15 0 10 -7 31 -15 47 -8
15 -15 31 -15 33 0 9 83 -7 98 -19z m-1998 -218 c0 -5 -15 -10 -32 -10 -25 0
-29 3 -18 10 20 13 50 13 50 0z m142 -61 c58 -23 163 -38 338 -47 l115 -7 -95
-32 c-226 -76 -374 -82 -441 -17 -15 15 -29 36 -31 48 -2 11 -7 20 -13 18 -39
-12 53 -122 102 -122 16 0 23 -4 18 -9 -6 -5 -59 -11 -118 -13 -104 -3 -110
-2 -128 21 -15 18 -18 32 -13 65 4 22 11 46 15 52 5 6 6 14 2 17 -3 4 2 16 12
27 26 29 163 29 237 -1z m1123 -40 c-4 -6 -14 -8 -22 -5 -8 3 -24 -1 -36 -8
-33 -22 -221 -75 -322 -91 -58 -10 -160 -15 -290 -14 l-200 0 80 24 c44 13
110 35 148 49 63 24 79 26 250 27 100 0 220 7 267 14 111 17 133 17 125 4z
m-75 -59 c-14 -11 -43 -25 -65 -30 -64 -17 -96 -32 -118 -54 -11 -12 -16 -15
-12 -7 6 11 4 13 -11 7 -50 -20 -139 -37 -239 -46 -60 -6 -144 -15 -185 -20
-170 -21 -519 -4 -578 29 -8 4 38 11 104 14 66 3 136 11 156 17 24 7 136 10
312 8 152 -2 276 -1 276 2 0 3 35 11 78 17 42 7 127 27 187 46 61 19 112 35
115 36 3 0 -6 -8 -20 -19z"/>
<path d="M2015 1839 c-3 -9 -5 -54 -3 -100 3 -82 4 -84 28 -84 40 0 92 110 60
130 -5 3 -10 15 -10 25 0 24 -18 36 -33 21 -7 -7 -14 -5 -23 7 -11 15 -13 15
-19 1z"/>
<path d="M1682 2247 c-38 -40 -27 -167 14 -167 12 0 14 5 9 18 -4 9 -10 36
-12 60 -4 33 -1 48 13 64 17 18 27 20 82 15 35 -4 62 -2 62 3 0 17 -39 30 -93
30 -43 0 -58 -5 -75 -23z"/>
<path d="M550 1991 c-49 -5 -78 -14 -117 -38 -28 -17 -54 -30 -57 -27 -3 2 -4
2 -3 -1 2 -3 -13 -24 -35 -47 -55 -60 -52 -88 15 -151 62 -59 134 -107 159
-107 28 0 21 18 -14 36 -39 20 -149 110 -162 131 -14 25 42 92 112 133 60 37
66 38 187 45 68 4 145 4 170 1 48 -8 61 5 26 24 -21 10 -169 11 -281 1z"/>
<path d="M1314 1989 c-2 -4 -16 -9 -31 -12 -16 -3 -37 -13 -48 -21 -74 -57
-114 -84 -118 -80 -2 3 -7 -2 -11 -11 -7 -19 21 -33 39 -19 6 5 45 31 86 58
62 41 82 49 134 53 59 5 60 4 78 -26 10 -17 25 -31 33 -31 20 0 18 10 -11 52
-23 34 -28 36 -86 40 -33 1 -63 0 -65 -3z"/>
<path d="M1203 1840 c-50 -59 -65 -88 -79 -148 -25 -105 -13 -183 32 -224 26
-22 134 -48 206 -48 56 0 56 0 93 50 48 66 64 156 46 259 -10 57 -18 74 -44
98 -18 15 -36 28 -42 28 -5 1 -28 6 -51 13 -22 6 -61 11 -86 10 -39 -2 -50 -7
-75 -38z m207 -23 c42 -20 46 -26 58 -77 20 -89 8 -175 -35 -237 -34 -51 -37
-53 -82 -52 -25 0 -75 8 -111 17 -57 15 -67 21 -83 52 -31 59 -9 187 44 265
45 65 116 76 209 32z"/>
<path d="M1253 1771 c-3 -12 -12 -20 -22 -19 -10 2 -17 -5 -19 -18 -2 -12 -12
-30 -23 -40 -24 -22 -25 -75 -1 -97 21 -19 48 -22 57 -6 5 6 11 4 19 -6 18
-25 45 -15 68 27 19 33 20 44 12 95 -8 51 -12 58 -34 61 -14 2 -31 9 -38 15
-10 8 -14 5 -19 -12z m47 -56 c0 -14 -4 -25 -10 -25 -5 0 -10 11 -10 25 0 14
5 25 10 25 6 0 10 -11 10 -25z m-70 -65 c0 -20 -5 -30 -15 -30 -18 0 -20 31
-3 48 17 17 18 16 18 -18z"/>
</g>
</svg>
